<svg xmlns="http://www.w3.org/2000/svg" fill="white" width="55" height="56"><path d="M27.5.954C12.375.954 0 13.13 0 28.011c0 14.88 12.375 27.056 27.5 27.056S55 42.892 55 28.011 42.763.954 27.5.954Zm12.652 39.097c-.55.81-1.512 1.082-2.34.541-6.462-3.923-14.574-4.737-24.202-2.572-.958.275-1.785-.404-2.06-1.216-.275-.949.412-1.758 1.237-2.029 10.45-2.302 19.525-1.353 26.675 2.976.963.406 1.098 1.486.69 2.3Zm3.3-7.44c-.69.947-1.927 1.352-2.892.676-7.422-4.464-18.698-5.817-27.36-3.112-1.098.271-2.337-.27-2.612-1.352-.275-1.083.275-2.303 1.375-2.573C22 23.276 34.374 24.766 42.9 29.905c.827.408 1.238 1.758.552 2.706Zm.275-7.576c-8.802-5.141-23.514-5.682-31.902-3.11-1.375.404-2.75-.408-3.162-1.625-.413-1.355.412-2.706 1.65-3.114 9.762-2.84 25.85-2.3 36.027 3.655 1.235.676 1.647 2.3.96 3.517-.685.95-2.337 1.35-3.573.677Z"/></svg>